<?xml version="1.0" encoding="iso-8859-1"?>
<!-- Generator: Adobe Illustrator 19.0.0, SVG Export Plug-In . SVG Version: 6.00 Build 0)  -->
<svg version="1.1" id="Layer_1" xmlns="http://www.w3.org/2000/svg" xmlns:xlink="http://www.w3.org/1999/xlink" x="0px" y="0px"
	 viewBox="0 0 330 330" style="enable-background:new 0 0 330 330;" xml:space="preserve">
<path id="XMLID_844_" d="M265,130h-15V84.999C250,38.13,211.869,0,165,0c-46.869,0-84.999,38.13-84.999,84.999V130H65
	c-8.284,0-15,6.716-15,15v170c0,8.284,6.716,15,15,15h200c8.284,0,15-6.716,15-15V145C280,136.716,273.284,130,265,130z
	 M110.001,84.999C110.001,54.673,134.673,30,165,30c30.327,0,55,24.673,55,54.999V130H110.001V84.999z M250,300H80V160h15.001H235
	h15V300z"/>
<g>
</g>
<g>
</g>
<g>
</g>
<g>
</g>
<g>
</g>
<g>
</g>
<g>
</g>
<g>
</g>
<g>
</g>
<g>
</g>
<g>
</g>
<g>
</g>
<g>
</g>
<g>
</g>
<g>
</g>
</svg>
