<?xml version="1.0" encoding="utf-8"?>
<!-- Generator: Adobe Illustrator 19.1.0, SVG Export Plug-In . SVG Version: 6.00 Build 0)  -->
<svg version="1.1" id="Layer_1" xmlns="http://www.w3.org/2000/svg" xmlns:xlink="http://www.w3.org/1999/xlink" x="0px" y="0px"
	 viewBox="0 0 64 64" enable-background="new 0 0 64 64" xml:space="preserve">
<g id="Single-lock">
	<path d="M33.0163994,35.0409012c-2.2442989,0-4.0655994,1.8213005-4.0655994,4.0655975
		c0,1.9070015,1.3201008,3.4966011,3.0921993,3.9350014c-0.0060997,0.0444984-0.0263977,0.0840988-0.0263977,0.1304016v8.1317978
		c0,0.5527,0.4473,1,1,1c0.5527992,0,1-0.4473,1-1v-8.1317978c0-0.046402-0.0202026-0.0859032-0.0263023-0.1305008
		c1.7719994-0.4384995,3.0918007-2.0280991,3.0918007-3.9349022C37.0820999,36.8622017,35.2607994,35.0409012,33.0163994,35.0409012
		z"/>
	<path d="M52.8995094,21.5h-7.7039108c-0.0139008-11.0937996-1.0898972-21-13.1945992-21
		c-12.1055984,0-13.1826992,9.9062004-13.1964912,21h-7.703908c-2.8125,0-5.1005998,2.2821999-5.1005998,5.0879002v31.8242016
		c0,2.8056984,2.2880998,5.0878983,5.1005998,5.0878983h41.7989082C55.711998,63.5,58,61.2178001,58,58.4121017V26.5879002
		C58,23.7821999,55.711998,21.5,52.8995094,21.5z M32.0009995,2.5c9.406601,0,11.1721001,6.4027996,11.1931992,19h-22.388298
		C20.8269997,8.9027996,22.5925999,2.5,32.0009995,2.5z M56,58.4121017C56,60.1152,54.6093979,61.5,52.8995094,61.5H11.1006002
		c-1.7098999,0-3.1005993-1.3848-3.1005993-3.0878983V26.5879002C8.000001,24.8847008,9.3907003,23.5,11.1006002,23.5h41.7989082
		C54.6093979,23.5,56,24.8847008,56,26.5879002V58.4121017z"/>
</g>
<g>
</g>
<g>
</g>
<g>
</g>
<g>
</g>
<g>
</g>
<g>
</g>
<g>
</g>
<g>
</g>
<g>
</g>
<g>
</g>
<g>
</g>
<g>
</g>
<g>
</g>
<g>
</g>
<g>
</g>
</svg>
